<svg width="395" height="320" viewBox="0 0 395 320" fill="none" xmlns="http://www.w3.org/2000/svg">
<g clip-path="url(#clip0_23987_8028)">
<g filter="url(#filter0_f_23987_8028)">
<circle cx="198.5" cy="163.5" r="103.5" fill="#2E333A" fill-opacity="0.2"/>
</g>
<mask id="path-2-inside-1_23987_8028" fill="white">
<path d="M67 60C67 55.5817 70.5817 52 75 52H173C177.418 52 181 55.5817 181 60V68C181 72.4183 177.418 76 173 76H75C70.5817 76 67 72.4183 67 68V60Z"/>
</mask>
<path d="M67 60C67 55.5817 70.5817 52 75 52H173C177.418 52 181 55.5817 181 60V68C181 72.4183 177.418 76 173 76H75C70.5817 76 67 72.4183 67 68V60Z" fill="url(#paint0_linear_23987_8028)"/>
<path d="M75 52V53H173V52V51H75V52ZM181 60H180V68H181H182V60H181ZM173 76V75H75V76V77H173V76ZM67 68H68V60H67H66V68H67ZM75 76V75C71.134 75 68 71.866 68 68H67H66C66 72.9706 70.0294 77 75 77V76ZM181 68H180C180 71.866 176.866 75 173 75V76V77C177.971 77 182 72.9706 182 68H181ZM173 52V53C176.866 53 180 56.134 180 60H181H182C182 55.0294 177.971 51 173 51V52ZM75 52V51C70.0294 51 66 55.0294 66 60H67H68C68 56.134 71.134 53 75 53V52Z" fill="url(#paint1_linear_23987_8028)" mask="url(#path-2-inside-1_23987_8028)"/>
<path d="M82.648 68.084C82.088 68.084 81.584 67.988 81.136 67.796C80.688 67.596 80.336 67.316 80.08 66.956C79.824 66.596 79.696 66.176 79.696 65.696H81.16C81.192 66.056 81.332 66.352 81.58 66.584C81.836 66.816 82.192 66.932 82.648 66.932C83.12 66.932 83.488 66.82 83.752 66.596C84.016 66.364 84.148 66.068 84.148 65.708C84.148 65.428 84.064 65.2 83.896 65.024C83.736 64.848 83.532 64.712 83.284 64.616C83.044 64.52 82.708 64.416 82.276 64.304C81.732 64.16 81.288 64.016 80.944 63.872C80.608 63.72 80.32 63.488 80.08 63.176C79.84 62.864 79.72 62.448 79.72 61.928C79.72 61.448 79.84 61.028 80.08 60.668C80.32 60.308 80.656 60.032 81.088 59.84C81.52 59.648 82.02 59.552 82.588 59.552C83.396 59.552 84.056 59.756 84.568 60.164C85.088 60.564 85.376 61.116 85.432 61.82H83.92C83.896 61.516 83.752 61.256 83.488 61.04C83.224 60.824 82.876 60.716 82.444 60.716C82.052 60.716 81.732 60.816 81.484 61.016C81.236 61.216 81.112 61.504 81.112 61.88C81.112 62.136 81.188 62.348 81.34 62.516C81.5 62.676 81.7 62.804 81.94 62.9C82.18 62.996 82.508 63.1 82.924 63.212C83.476 63.364 83.924 63.516 84.268 63.668C84.62 63.82 84.916 64.056 85.156 64.376C85.404 64.688 85.528 65.108 85.528 65.636C85.528 66.06 85.412 66.46 85.18 66.836C84.956 67.212 84.624 67.516 84.184 67.748C83.752 67.972 83.24 68.084 82.648 68.084ZM90.5622 61.28C91.0662 61.28 91.5142 61.388 91.9062 61.604C92.3062 61.82 92.6182 62.14 92.8422 62.564C93.0742 62.988 93.1902 63.5 93.1902 64.1V68H91.8342V64.304C91.8342 63.712 91.6862 63.26 91.3902 62.948C91.0942 62.628 90.6902 62.468 90.1782 62.468C89.6662 62.468 89.2582 62.628 88.9542 62.948C88.6582 63.26 88.5102 63.712 88.5102 64.304V68H87.1422V59.12H88.5102V62.156C88.7422 61.876 89.0342 61.66 89.3862 61.508C89.7462 61.356 90.1382 61.28 90.5622 61.28ZM94.4792 64.664C94.4792 64 94.6152 63.412 94.8872 62.9C95.1672 62.388 95.5432 61.992 96.0152 61.712C96.4952 61.424 97.0232 61.28 97.5992 61.28C98.1192 61.28 98.5712 61.384 98.9552 61.592C99.3472 61.792 99.6592 62.044 99.8912 62.348V61.388H101.271V68H99.8912V67.016C99.6592 67.328 99.3432 67.588 98.9432 67.796C98.5432 68.004 98.0872 68.108 97.5752 68.108C97.0072 68.108 96.4872 67.964 96.0152 67.676C95.5432 67.38 95.1672 66.972 94.8872 66.452C94.6152 65.924 94.4792 65.328 94.4792 64.664ZM99.8912 64.688C99.8912 64.232 99.7952 63.836 99.6032 63.5C99.4192 63.164 99.1752 62.908 98.8712 62.732C98.5672 62.556 98.2392 62.468 97.8872 62.468C97.5352 62.468 97.2072 62.556 96.9032 62.732C96.5992 62.9 96.3512 63.152 96.1592 63.488C95.9752 63.816 95.8832 64.208 95.8832 64.664C95.8832 65.12 95.9752 65.52 96.1592 65.864C96.3512 66.208 96.5992 66.472 96.9032 66.656C97.2152 66.832 97.5432 66.92 97.8872 66.92C98.2392 66.92 98.5672 66.832 98.8712 66.656C99.1752 66.48 99.4192 66.224 99.6032 65.888C99.7952 65.544 99.8912 65.144 99.8912 64.688ZM104.436 62.348C104.636 62.012 104.9 61.752 105.228 61.568C105.564 61.376 105.96 61.28 106.416 61.28V62.696H106.068C105.532 62.696 105.124 62.832 104.844 63.104C104.572 63.376 104.436 63.848 104.436 64.52V68H103.068V61.388H104.436V62.348ZM108.369 60.512C108.121 60.512 107.913 60.428 107.745 60.26C107.577 60.092 107.493 59.884 107.493 59.636C107.493 59.388 107.577 59.18 107.745 59.012C107.913 58.844 108.121 58.76 108.369 58.76C108.609 58.76 108.813 58.844 108.981 59.012C109.149 59.18 109.233 59.388 109.233 59.636C109.233 59.884 109.149 60.092 108.981 60.26C108.813 60.428 108.609 60.512 108.369 60.512ZM109.041 61.388V68H107.673V61.388H109.041ZM114.174 61.28C114.694 61.28 115.158 61.388 115.566 61.604C115.982 61.82 116.306 62.14 116.538 62.564C116.77 62.988 116.886 63.5 116.886 64.1V68H115.53V64.304C115.53 63.712 115.382 63.26 115.086 62.948C114.79 62.628 114.386 62.468 113.874 62.468C113.362 62.468 112.954 62.628 112.65 62.948C112.354 63.26 112.206 63.712 112.206 64.304V68H110.838V61.388H112.206V62.144C112.43 61.872 112.714 61.66 113.058 61.508C113.41 61.356 113.782 61.28 114.174 61.28ZM121.294 61.28C121.806 61.28 122.258 61.384 122.65 61.592C123.05 61.792 123.362 62.044 123.586 62.348V61.388H124.966V68.108C124.966 68.716 124.838 69.256 124.582 69.728C124.326 70.208 123.954 70.584 123.466 70.856C122.986 71.128 122.41 71.264 121.738 71.264C120.842 71.264 120.098 71.052 119.506 70.628C118.914 70.212 118.578 69.644 118.498 68.924H119.854C119.958 69.268 120.178 69.544 120.514 69.752C120.858 69.968 121.266 70.076 121.738 70.076C122.29 70.076 122.734 69.908 123.07 69.572C123.414 69.236 123.586 68.748 123.586 68.108V67.004C123.354 67.316 123.038 67.58 122.638 67.796C122.246 68.004 121.798 68.108 121.294 68.108C120.718 68.108 120.19 67.964 119.71 67.676C119.238 67.38 118.862 66.972 118.582 66.452C118.31 65.924 118.174 65.328 118.174 64.664C118.174 64 118.31 63.412 118.582 62.9C118.862 62.388 119.238 61.992 119.71 61.712C120.19 61.424 120.718 61.28 121.294 61.28ZM123.586 64.688C123.586 64.232 123.49 63.836 123.298 63.5C123.114 63.164 122.87 62.908 122.566 62.732C122.262 62.556 121.934 62.468 121.582 62.468C121.23 62.468 120.902 62.556 120.598 62.732C120.294 62.9 120.046 63.152 119.854 63.488C119.67 63.816 119.578 64.208 119.578 64.664C119.578 65.12 119.67 65.52 119.854 65.864C120.046 66.208 120.294 66.472 120.598 66.656C120.91 66.832 121.238 66.92 121.582 66.92C121.934 66.92 122.262 66.832 122.566 66.656C122.87 66.48 123.114 66.224 123.298 65.888C123.49 65.544 123.586 65.144 123.586 64.688ZM134.212 68L132.292 64.664H131.248V68H129.88V59.66H132.76C133.4 59.66 133.94 59.772 134.38 59.996C134.828 60.22 135.16 60.52 135.376 60.896C135.6 61.272 135.712 61.692 135.712 62.156C135.712 62.7 135.552 63.196 135.232 63.644C134.92 64.084 134.436 64.384 133.78 64.544L135.844 68H134.212ZM131.248 63.572H132.76C133.272 63.572 133.656 63.444 133.912 63.188C134.176 62.932 134.308 62.588 134.308 62.156C134.308 61.724 134.18 61.388 133.924 61.148C133.668 60.9 133.28 60.776 132.76 60.776H131.248V63.572ZM143.523 64.532C143.523 64.78 143.507 65.004 143.475 65.204H138.423C138.463 65.732 138.659 66.156 139.011 66.476C139.363 66.796 139.795 66.956 140.307 66.956C141.043 66.956 141.563 66.648 141.867 66.032H143.342C143.143 66.64 142.779 67.14 142.251 67.532C141.731 67.916 141.083 68.108 140.307 68.108C139.675 68.108 139.107 67.968 138.603 67.688C138.107 67.4 137.715 67 137.427 66.488C137.147 65.968 137.007 65.368 137.007 64.688C137.007 64.008 137.143 63.412 137.415 62.9C137.695 62.38 138.083 61.98 138.579 61.7C139.083 61.42 139.659 61.28 140.307 61.28C140.931 61.28 141.487 61.416 141.975 61.688C142.463 61.96 142.843 62.344 143.115 62.84C143.387 63.328 143.523 63.892 143.523 64.532ZM142.095 64.1C142.087 63.596 141.907 63.192 141.555 62.888C141.203 62.584 140.767 62.432 140.247 62.432C139.775 62.432 139.371 62.584 139.035 62.888C138.699 63.184 138.499 63.588 138.435 64.1H142.095ZM146.237 62.36C146.469 62.056 146.785 61.8 147.185 61.592C147.585 61.384 148.037 61.28 148.541 61.28C149.117 61.28 149.641 61.424 150.113 61.712C150.593 61.992 150.969 62.388 151.241 62.9C151.513 63.412 151.649 64 151.649 64.664C151.649 65.328 151.513 65.924 151.241 66.452C150.969 66.972 150.593 67.38 150.113 67.676C149.641 67.964 149.117 68.108 148.541 68.108C148.037 68.108 147.589 68.008 147.197 67.808C146.805 67.6 146.485 67.344 146.237 67.04V71.144H144.869V61.388H146.237V62.36ZM150.257 64.664C150.257 64.208 150.161 63.816 149.969 63.488C149.785 63.152 149.537 62.9 149.225 62.732C148.921 62.556 148.593 62.468 148.241 62.468C147.897 62.468 147.569 62.556 147.257 62.732C146.953 62.908 146.705 63.164 146.513 63.5C146.329 63.836 146.237 64.232 146.237 64.688C146.237 65.144 146.329 65.544 146.513 65.888C146.705 66.224 146.953 66.48 147.257 66.656C147.569 66.832 147.897 66.92 148.241 66.92C148.593 66.92 148.921 66.832 149.225 66.656C149.537 66.472 149.785 66.208 149.969 65.864C150.161 65.52 150.257 65.12 150.257 64.664ZM155.87 68.108C155.246 68.108 154.682 67.968 154.178 67.688C153.674 67.4 153.278 67 152.99 66.488C152.702 65.968 152.558 65.368 152.558 64.688C152.558 64.016 152.706 63.42 153.002 62.9C153.298 62.38 153.702 61.98 154.214 61.7C154.726 61.42 155.298 61.28 155.93 61.28C156.562 61.28 157.134 61.42 157.646 61.7C158.158 61.98 158.562 62.38 158.858 62.9C159.154 63.42 159.302 64.016 159.302 64.688C159.302 65.36 159.15 65.956 158.846 66.476C158.542 66.996 158.126 67.4 157.598 67.688C157.078 67.968 156.502 68.108 155.87 68.108ZM155.87 66.92C156.222 66.92 156.55 66.836 156.854 66.668C157.166 66.5 157.418 66.248 157.61 65.912C157.802 65.576 157.898 65.168 157.898 64.688C157.898 64.208 157.806 63.804 157.622 63.476C157.438 63.14 157.194 62.888 156.89 62.72C156.586 62.552 156.258 62.468 155.906 62.468C155.554 62.468 155.226 62.552 154.922 62.72C154.626 62.888 154.39 63.14 154.214 63.476C154.038 63.804 153.95 64.208 153.95 64.688C153.95 65.4 154.13 65.952 154.49 66.344C154.858 66.728 155.318 66.92 155.87 66.92ZM162.022 62.348C162.222 62.012 162.486 61.752 162.814 61.568C163.15 61.376 163.546 61.28 164.002 61.28V62.696H163.654C163.118 62.696 162.71 62.832 162.43 63.104C162.158 63.376 162.022 63.848 162.022 64.52V68H160.654V61.388H162.022V62.348ZM166.855 62.504V66.164C166.855 66.412 166.911 66.592 167.023 66.704C167.143 66.808 167.343 66.86 167.623 66.86H168.463V68H167.383C166.767 68 166.295 67.856 165.967 67.568C165.639 67.28 165.475 66.812 165.475 66.164V62.504H164.695V61.388H165.475V59.744H166.855V61.388H168.463V62.504H166.855Z" fill="#00C584"/>
<g filter="url(#filter1_dd_23987_8028)">
<mask id="path-5-inside-2_23987_8028" fill="white">
<path d="M224 254C224 249.582 227.582 246 232 246H332C336.418 246 340 249.582 340 254V262C340 266.418 336.418 270 332 270H232C227.582 270 224 266.418 224 262V254Z"/>
</mask>
<path d="M224 254C224 249.582 227.582 246 232 246H332C336.418 246 340 249.582 340 254V262C340 266.418 336.418 270 332 270H232C227.582 270 224 266.418 224 262V254Z" fill="url(#paint2_linear_23987_8028)"/>
<path d="M232 246V247H332V246V245H232V246ZM340 254H339V262H340H341V254H340ZM332 270V269H232V270V271H332V270ZM224 262H225V254H224H223V262H224ZM232 270V269C228.134 269 225 265.866 225 262H224H223C223 266.971 227.029 271 232 271V270ZM340 262H339C339 265.866 335.866 269 332 269V270V271C336.971 271 341 266.971 341 262H340ZM332 246V247C335.866 247 339 250.134 339 254H340H341C341 249.029 336.971 245 332 245V246ZM232 246V245C227.029 245 223 249.029 223 254H224H225C225 250.134 228.134 247 232 247V246Z" fill="url(#paint3_linear_23987_8028)" mask="url(#path-5-inside-2_23987_8028)"/>
<path d="M241.928 260.296H238.436L237.836 262H236.408L239.396 253.648H240.98L243.968 262H242.528L241.928 260.296ZM241.544 259.18L240.188 255.304L238.82 259.18H241.544ZM248.603 255.28C249.123 255.28 249.587 255.388 249.995 255.604C250.411 255.82 250.735 256.14 250.967 256.564C251.199 256.988 251.315 257.5 251.315 258.1V262H249.959V258.304C249.959 257.712 249.811 257.26 249.515 256.948C249.219 256.628 248.815 256.468 248.303 256.468C247.791 256.468 247.383 256.628 247.079 256.948C246.783 257.26 246.635 257.712 246.635 258.304V262H245.267V255.388H246.635V256.144C246.859 255.872 247.143 255.66 247.487 255.508C247.839 255.356 248.211 255.28 248.603 255.28ZM252.604 258.664C252.604 258 252.74 257.412 253.012 256.9C253.292 256.388 253.668 255.992 254.14 255.712C254.62 255.424 255.148 255.28 255.724 255.28C256.244 255.28 256.696 255.384 257.08 255.592C257.472 255.792 257.784 256.044 258.016 256.348V255.388H259.396V262H258.016V261.016C257.784 261.328 257.468 261.588 257.068 261.796C256.668 262.004 256.212 262.108 255.7 262.108C255.132 262.108 254.612 261.964 254.14 261.676C253.668 261.38 253.292 260.972 253.012 260.452C252.74 259.924 252.604 259.328 252.604 258.664ZM258.016 258.688C258.016 258.232 257.92 257.836 257.728 257.5C257.544 257.164 257.3 256.908 256.996 256.732C256.692 256.556 256.364 256.468 256.012 256.468C255.66 256.468 255.332 256.556 255.028 256.732C254.724 256.9 254.476 257.152 254.284 257.488C254.1 257.816 254.008 258.208 254.008 258.664C254.008 259.12 254.1 259.52 254.284 259.864C254.476 260.208 254.724 260.472 255.028 260.656C255.34 260.832 255.668 260.92 256.012 260.92C256.364 260.92 256.692 260.832 256.996 260.656C257.3 260.48 257.544 260.224 257.728 259.888C257.92 259.544 258.016 259.144 258.016 258.688ZM262.561 253.12V262H261.193V253.12H262.561ZM270.309 255.388L266.253 265.108H264.837L266.181 261.892L263.577 255.388H265.101L266.961 260.428L268.893 255.388H270.309ZM272.553 260.884H275.553V262H270.969V260.884L273.981 256.504H270.969V255.388H275.553V256.504L272.553 260.884ZM277.686 254.512C277.438 254.512 277.23 254.428 277.062 254.26C276.894 254.092 276.81 253.884 276.81 253.636C276.81 253.388 276.894 253.18 277.062 253.012C277.23 252.844 277.438 252.76 277.686 252.76C277.926 252.76 278.13 252.844 278.298 253.012C278.466 253.18 278.55 253.388 278.55 253.636C278.55 253.884 278.466 254.092 278.298 254.26C278.13 254.428 277.926 254.512 277.686 254.512ZM278.358 255.388V262H276.99V255.388H278.358ZM283.49 255.28C284.01 255.28 284.474 255.388 284.882 255.604C285.298 255.82 285.622 256.14 285.854 256.564C286.086 256.988 286.202 257.5 286.202 258.1V262H284.846V258.304C284.846 257.712 284.698 257.26 284.402 256.948C284.106 256.628 283.702 256.468 283.19 256.468C282.678 256.468 282.27 256.628 281.966 256.948C281.67 257.26 281.522 257.712 281.522 258.304V262H280.154V255.388H281.522V256.144C281.746 255.872 282.03 255.66 282.374 255.508C282.726 255.356 283.098 255.28 283.49 255.28ZM290.611 255.28C291.123 255.28 291.575 255.384 291.967 255.592C292.367 255.792 292.679 256.044 292.903 256.348V255.388H294.283V262.108C294.283 262.716 294.155 263.256 293.899 263.728C293.643 264.208 293.271 264.584 292.783 264.856C292.303 265.128 291.727 265.264 291.055 265.264C290.159 265.264 289.415 265.052 288.823 264.628C288.231 264.212 287.895 263.644 287.815 262.924H289.171C289.275 263.268 289.495 263.544 289.831 263.752C290.175 263.968 290.583 264.076 291.055 264.076C291.607 264.076 292.051 263.908 292.387 263.572C292.731 263.236 292.903 262.748 292.903 262.108V261.004C292.671 261.316 292.355 261.58 291.955 261.796C291.563 262.004 291.115 262.108 290.611 262.108C290.035 262.108 289.507 261.964 289.027 261.676C288.555 261.38 288.179 260.972 287.899 260.452C287.627 259.924 287.491 259.328 287.491 258.664C287.491 258 287.627 257.412 287.899 256.9C288.179 256.388 288.555 255.992 289.027 255.712C289.507 255.424 290.035 255.28 290.611 255.28ZM292.903 258.688C292.903 258.232 292.807 257.836 292.615 257.5C292.431 257.164 292.187 256.908 291.883 256.732C291.579 256.556 291.251 256.468 290.899 256.468C290.547 256.468 290.219 256.556 289.915 256.732C289.611 256.9 289.363 257.152 289.171 257.488C288.987 257.816 288.895 258.208 288.895 258.664C288.895 259.12 288.987 259.52 289.171 259.864C289.363 260.208 289.611 260.472 289.915 260.656C290.227 260.832 290.555 260.92 290.899 260.92C291.251 260.92 291.579 260.832 291.883 260.656C292.187 260.48 292.431 260.224 292.615 259.888C292.807 259.544 292.903 259.144 292.903 258.688ZM301.921 253.66C302.809 253.66 303.585 253.832 304.249 254.176C304.921 254.512 305.437 255 305.797 255.64C306.165 256.272 306.349 257.012 306.349 257.86C306.349 258.708 306.165 259.444 305.797 260.068C305.437 260.692 304.921 261.172 304.249 261.508C303.585 261.836 302.809 262 301.921 262H299.197V253.66H301.921ZM301.921 260.884C302.897 260.884 303.645 260.62 304.165 260.092C304.685 259.564 304.945 258.82 304.945 257.86C304.945 256.892 304.685 256.136 304.165 255.592C303.645 255.048 302.897 254.776 301.921 254.776H300.565V260.884H301.921ZM307.249 258.664C307.249 258 307.385 257.412 307.657 256.9C307.937 256.388 308.313 255.992 308.785 255.712C309.265 255.424 309.793 255.28 310.369 255.28C310.889 255.28 311.341 255.384 311.725 255.592C312.117 255.792 312.429 256.044 312.661 256.348V255.388H314.041V262H312.661V261.016C312.429 261.328 312.113 261.588 311.713 261.796C311.313 262.004 310.857 262.108 310.345 262.108C309.777 262.108 309.257 261.964 308.785 261.676C308.313 261.38 307.937 260.972 307.657 260.452C307.385 259.924 307.249 259.328 307.249 258.664ZM312.661 258.688C312.661 258.232 312.565 257.836 312.373 257.5C312.189 257.164 311.945 256.908 311.641 256.732C311.337 256.556 311.009 256.468 310.657 256.468C310.305 256.468 309.977 256.556 309.673 256.732C309.369 256.9 309.121 257.152 308.929 257.488C308.745 257.816 308.653 258.208 308.653 258.664C308.653 259.12 308.745 259.52 308.929 259.864C309.121 260.208 309.369 260.472 309.673 260.656C309.985 260.832 310.313 260.92 310.657 260.92C311.009 260.92 311.337 260.832 311.641 260.656C311.945 260.48 312.189 260.224 312.373 259.888C312.565 259.544 312.661 259.144 312.661 258.688ZM317.434 256.504V260.164C317.434 260.412 317.49 260.592 317.602 260.704C317.722 260.808 317.922 260.86 318.202 260.86H319.042V262H317.962C317.346 262 316.874 261.856 316.546 261.568C316.218 261.28 316.054 260.812 316.054 260.164V256.504H315.274V255.388H316.054V253.744H317.434V255.388H319.042V256.504H317.434ZM319.846 258.664C319.846 258 319.982 257.412 320.254 256.9C320.534 256.388 320.91 255.992 321.382 255.712C321.862 255.424 322.39 255.28 322.966 255.28C323.486 255.28 323.938 255.384 324.322 255.592C324.714 255.792 325.026 256.044 325.258 256.348V255.388H326.638V262H325.258V261.016C325.026 261.328 324.71 261.588 324.31 261.796C323.91 262.004 323.454 262.108 322.942 262.108C322.374 262.108 321.854 261.964 321.382 261.676C320.91 261.38 320.534 260.972 320.254 260.452C319.982 259.924 319.846 259.328 319.846 258.664ZM325.258 258.688C325.258 258.232 325.162 257.836 324.97 257.5C324.786 257.164 324.542 256.908 324.238 256.732C323.934 256.556 323.606 256.468 323.254 256.468C322.902 256.468 322.574 256.556 322.27 256.732C321.966 256.9 321.718 257.152 321.526 257.488C321.342 257.816 321.25 258.208 321.25 258.664C321.25 259.12 321.342 259.52 321.526 259.864C321.718 260.208 321.966 260.472 322.27 260.656C322.582 260.832 322.91 260.92 323.254 260.92C323.606 260.92 323.934 260.832 324.238 260.656C324.542 260.48 324.786 260.224 324.97 259.888C325.162 259.544 325.258 259.144 325.258 258.688Z" fill="#F1F2F5"/>
</g>
<mask id="mask0_23987_8028" style="mask-type:alpha" maskUnits="userSpaceOnUse" x="27" y="96" width="331" height="127">
<path d="M70 164C78.8366 164 86 171.163 86 180V207C86 215.837 78.8366 223 70 223H43C34.1634 223 27 215.837 27 207V180C27 171.163 34.1634 164 43 164H70ZM138 164C146.837 164 154 171.163 154 180V207C154 215.837 146.837 223 138 223H111C102.163 223 95 215.837 95 207V180C95 171.163 102.163 164 111 164H138ZM206 164C214.837 164 222 171.163 222 180V207C222 215.837 214.837 223 206 223H179C170.163 223 163 215.837 163 207V180C163 171.163 170.163 164 179 164H206ZM274 164C282.837 164 290 171.163 290 180V207C290 215.837 282.837 223 274 223H247C238.163 223 231 215.837 231 207V180C231 171.163 238.163 164 247 164H274ZM342 164C350.837 164 358 171.163 358 180V207C358 215.837 350.837 223 342 223H315C306.163 223 299 215.837 299 207V180C299 171.163 306.163 164 315 164H342ZM70 96C78.8366 96 86 103.163 86 112V139C86 147.837 78.8366 155 70 155H43C34.1634 155 27 147.837 27 139V112C27 103.163 34.1634 96 43 96H70ZM138 96C146.837 96 154 103.163 154 112V139C154 147.837 146.837 155 138 155H111C102.163 155 95 147.837 95 139V112C95 103.163 102.163 96 111 96H138ZM206 96C214.837 96 222 103.163 222 112V139C222 147.837 214.837 155 206 155H179C170.163 155 163 147.837 163 139V112C163 103.163 170.163 96 179 96H206ZM274 96C282.837 96 290 103.163 290 112V139C290 147.837 282.837 155 274 155H247C238.163 155 231 147.837 231 139V112C231 103.163 238.163 96 247 96H274ZM342 96C350.837 96 358 103.163 358 112V139C358 147.837 350.837 155 342 155H315C306.163 155 299 147.837 299 139V112C299 103.163 306.163 96 315 96H342Z" fill="#24272C"/>
</mask>
<g mask="url(#mask0_23987_8028)">
<g filter="url(#filter2_f_23987_8028)">
<circle cx="189" cy="147" r="95" fill="#25282D"/>
</g>
</g>
<mask id="mask1_23987_8028" style="mask-type:alpha" maskUnits="userSpaceOnUse" x="27" y="96" width="331" height="127">
<path d="M70 164C78.8366 164 86 171.163 86 180V207C86 215.698 79.0587 222.776 70.4131 222.995L70 223H43L42.5869 222.995C34.0785 222.78 27.2205 215.921 27.0049 207.413L27 207V180C27 171.163 34.1634 164 43 164H70ZM138 164C146.837 164 154 171.163 154 180V207C154 215.698 147.059 222.776 138.413 222.995L138 223H111L110.587 222.995C102.079 222.78 95.2205 215.921 95.0049 207.413L95 207V180C95 171.163 102.163 164 111 164H138ZM206 164C214.837 164 222 171.163 222 180V207C222 215.698 215.059 222.776 206.413 222.995L206 223H179L178.587 222.995C170.079 222.78 163.221 215.921 163.005 207.413L163 207V180C163 171.163 170.163 164 179 164H206ZM274 164C282.837 164 290 171.163 290 180V207C290 215.698 283.059 222.776 274.413 222.995L274 223H247L246.587 222.995C238.079 222.78 231.221 215.921 231.005 207.413L231 207V180C231 171.163 238.163 164 247 164H274ZM342 164C350.837 164 358 171.163 358 180V207C358 215.698 351.059 222.776 342.413 222.995L342 223H315L314.587 222.995C306.079 222.78 299.22 215.921 299.005 207.413L299 207V180C299 171.163 306.163 164 315 164H342ZM43 165C34.7157 165 28 171.716 28 180V207C28 215.284 34.7157 222 43 222H70C78.2843 222 85 215.284 85 207V180C85 171.716 78.2843 165 70 165H43ZM111 165C102.716 165 96 171.716 96 180V207C96 215.284 102.716 222 111 222H138C146.284 222 153 215.284 153 207V180C153 171.716 146.284 165 138 165H111ZM179 165C170.716 165 164 171.716 164 180V207C164 215.284 170.716 222 179 222H206C214.284 222 221 215.284 221 207V180C221 171.716 214.284 165 206 165H179ZM247 165C238.716 165 232 171.716 232 180V207C232 215.284 238.716 222 247 222H274C282.284 222 289 215.284 289 207V180C289 171.716 282.284 165 274 165H247ZM315 165C306.716 165 300 171.716 300 180V207C300 215.284 306.716 222 315 222H342C350.284 222 357 215.284 357 207V180C357 171.716 350.284 165 342 165H315ZM122.943 181C129.763 181 135.287 186.735 135.287 193.816C135.287 199.471 131.754 204.277 126.878 205.976C126.261 206.103 126.029 205.703 126.029 205.367C126.029 204.935 126.045 203.557 126.045 201.843C126.045 200.641 125.659 199.872 125.212 199.472C127.958 199.151 130.844 198.062 130.844 193.144C130.844 191.734 130.365 190.596 129.578 189.699C129.702 189.379 130.134 188.065 129.455 186.303C129.455 186.303 128.421 185.95 126.061 187.616C125.073 187.328 124.024 187.184 122.975 187.184C121.925 187.184 120.876 187.328 119.889 187.616C117.528 185.966 116.494 186.303 116.494 186.303C115.815 188.065 116.248 189.379 116.371 189.699C115.584 190.596 115.105 191.75 115.105 193.144C115.106 198.045 117.975 199.151 120.722 199.472C120.367 199.792 120.043 200.353 119.935 201.186C119.225 201.522 117.451 202.066 116.34 200.128C116.108 199.743 115.414 198.799 114.442 198.814C113.409 198.83 114.025 199.423 114.457 199.663C114.982 199.967 115.584 201.105 115.723 201.474C115.97 202.195 116.772 203.572 119.873 202.979C119.873 204.053 119.889 205.063 119.889 205.367C119.888 205.704 119.657 206.088 119.04 205.976C114.133 204.277 110.6 199.487 110.6 193.816C110.6 186.736 116.124 181 122.943 181ZM70 96C78.8366 96 86 103.163 86 112V139C86 147.698 79.0587 154.776 70.4131 154.995L70 155H43L42.5869 154.995C34.0785 154.779 27.2205 147.921 27.0049 139.413L27 139V112C27 103.163 34.1634 96 43 96H70ZM138 96C146.837 96 154 103.163 154 112V139C154 147.698 147.059 154.776 138.413 154.995L138 155H111L110.587 154.995C102.079 154.779 95.2205 147.921 95.0049 139.413L95 139V112C95 103.163 102.163 96 111 96H138ZM206 96C214.837 96 222 103.163 222 112V139C222 147.698 215.059 154.776 206.413 154.995L206 155H179L178.587 154.995C170.079 154.779 163.221 147.921 163.005 139.413L163 139V112C163 103.163 170.163 96 179 96H206ZM274 96C282.837 96 290 103.163 290 112V139C290 147.698 283.059 154.776 274.413 154.995L274 155H247L246.587 154.995C238.079 154.779 231.221 147.921 231.005 139.413L231 139V112C231 103.163 238.163 96 247 96H274ZM342 96C350.837 96 358 103.163 358 112V139C358 147.698 351.059 154.776 342.413 154.995L342 155H315L314.587 154.995C306.079 154.779 299.22 147.921 299.005 139.413L299 139V112C299 103.163 306.163 96 315 96H342ZM43 97C34.7157 97 28 103.716 28 112V139C28 147.284 34.7157 154 43 154H70C78.2843 154 85 147.284 85 139V112C85 103.716 78.2843 97 70 97H43ZM111 97C102.716 97 96 103.716 96 112V139C96 147.284 102.716 154 111 154H138C146.284 154 153 147.284 153 139V112C153 103.716 146.284 97 138 97H111ZM179 97C170.716 97 164 103.716 164 112V139C164 147.284 170.716 154 179 154H206C214.284 154 221 147.284 221 139V112C221 103.716 214.284 97 206 97H179ZM247 97C238.716 97 232 103.716 232 112V139C232 147.284 238.716 154 247 154H274C282.284 154 289 147.284 289 139V112C289 103.716 282.284 97 274 97H247ZM315 97C306.716 97 300 103.716 300 112V139C300 147.284 306.716 154 315 154H342C350.284 154 357 147.284 357 139V112C357 103.716 350.284 97 342 97H315ZM185.963 121C186.041 121 186.121 121.02 186.18 121.06C186.239 121.099 186.298 121.159 186.337 121.219L188.615 125.156C188.694 125.276 188.733 125.435 188.733 125.574C188.733 125.713 188.694 125.872 188.615 125.991L183.626 134.562C183.547 134.682 183.449 134.801 183.312 134.881C183.174 134.96 183.036 135 182.879 135H178.303C178.224 135 178.146 134.98 178.087 134.94C178.028 134.901 177.969 134.841 177.93 134.781C177.89 134.722 177.87 134.642 177.87 134.562C177.89 134.483 177.91 134.423 177.949 134.344L185.59 121.219C185.629 121.159 185.688 121.099 185.747 121.06C185.806 121.02 185.884 121 185.963 121ZM199.378 129.979C199.541 129.979 199.684 130.019 199.827 130.098C199.97 130.177 200.073 130.295 200.154 130.414L202.526 134.327C202.567 134.406 202.588 134.465 202.588 134.544C202.588 134.623 202.567 134.702 202.526 134.762C202.486 134.821 202.425 134.88 202.363 134.92C202.302 134.959 202.219 134.979 202.138 134.979H186.229C186.168 134.978 186.087 134.959 186.025 134.92C185.964 134.88 185.902 134.821 185.861 134.762C185.82 134.683 185.8 134.623 185.8 134.544C185.8 134.465 185.821 134.386 185.861 134.327L188.233 130.414C188.315 130.276 188.418 130.177 188.561 130.098C188.704 130.019 188.847 129.979 189.011 129.979H199.378ZM190.146 114C190.225 114 190.303 114.02 190.362 114.06C190.421 114.099 190.48 114.159 190.52 114.219L198.175 127.344C198.214 127.423 198.233 127.483 198.233 127.562C198.233 127.642 198.214 127.722 198.175 127.781C198.135 127.841 198.077 127.901 198.018 127.94C197.959 127.98 197.88 128 197.801 128H193.235C193.078 128 192.94 127.96 192.803 127.881C192.665 127.801 192.566 127.682 192.487 127.562L187.489 118.991C187.411 118.872 187.371 118.713 187.371 118.574C187.371 118.435 187.411 118.276 187.489 118.156L189.772 114.219C189.812 114.159 189.871 114.099 189.93 114.06C189.989 114.02 190.068 114 190.146 114Z" fill="#24272C"/>
</mask>
<g mask="url(#mask1_23987_8028)">
<g filter="url(#filter3_f_23987_8028)">
<circle cx="167.5" cy="149.5" r="65.5" fill="#343941"/>
</g>
</g>
<path d="M254.52 126.513C255.172 126.514 255.798 126.777 256.26 127.244C256.721 127.711 256.981 128.345 256.982 129.006V135.256C256.981 135.916 256.721 136.549 256.26 137.017C255.798 137.484 255.172 137.747 254.52 137.749C253.163 137.745 252.061 136.631 252.058 135.256V129.008C252.059 128.347 252.319 127.713 252.78 127.245C253.242 126.778 253.867 126.515 254.52 126.513ZM260.709 132.762C261.362 132.764 261.987 133.027 262.448 133.494C262.91 133.961 263.17 134.594 263.172 135.255C263.17 135.916 262.91 136.549 262.448 137.017C261.987 137.484 261.361 137.747 260.709 137.749C259.351 137.747 258.25 136.632 258.247 135.255V132.762H260.709ZM250.814 129.008C250.813 129.669 250.553 130.303 250.092 130.771C249.63 131.238 249.004 131.501 248.352 131.503L248.35 131.5C246.991 131.498 245.889 130.381 245.888 129.006C245.89 128.345 246.151 127.712 246.612 127.245C247.074 126.778 247.699 126.515 248.352 126.514H250.814V129.008ZM266.879 126.518C267.531 126.519 268.157 126.782 268.618 127.249C269.08 127.716 269.34 128.35 269.342 129.011C269.34 129.671 269.08 130.305 268.618 130.771C268.157 131.238 267.531 131.501 266.879 131.503H260.709C259.351 131.501 258.25 130.384 258.247 129.009C258.249 128.348 258.508 127.716 258.97 127.249C259.431 126.782 260.057 126.519 260.709 126.518H266.879ZM260.709 114C261.361 114.002 261.986 114.266 262.447 114.733C262.908 115.201 263.168 115.834 263.17 116.494V122.743C263.168 123.404 262.909 124.038 262.447 124.505C261.986 124.972 261.36 125.235 260.708 125.237C259.349 125.234 258.25 124.117 258.247 122.743V116.494C258.249 115.833 258.508 115.2 258.97 114.732C259.431 114.265 260.057 114.002 260.709 114ZM254.52 120.248C255.172 120.25 255.798 120.513 256.26 120.98C256.721 121.448 256.981 122.081 256.982 122.741C256.981 123.402 256.722 124.036 256.261 124.503C255.799 124.97 255.174 125.234 254.521 125.235H248.35C246.993 125.233 245.891 124.119 245.888 122.741C245.89 122.081 246.149 121.448 246.61 120.98C247.072 120.513 247.697 120.25 248.35 120.248H254.52ZM266.878 120.25C267.53 120.252 268.156 120.514 268.617 120.981C269.079 121.449 269.338 122.082 269.34 122.743C269.338 123.404 269.077 124.037 268.615 124.504C268.154 124.971 267.528 125.234 266.876 125.235H264.413V122.741C264.415 122.081 264.675 121.448 265.137 120.98C265.598 120.513 266.223 120.25 266.876 120.248L266.878 120.25ZM254.521 114C255.174 114.002 255.8 114.266 256.261 114.733C256.722 115.201 256.981 115.834 256.982 116.495V118.989H254.52C253.161 118.987 252.059 117.871 252.058 116.495L252.059 116.494C252.06 115.833 252.321 115.2 252.782 114.732C253.244 114.265 253.869 114.002 254.521 114Z" fill="url(#paint4_linear_23987_8028)"/>
<g filter="url(#filter4_d_23987_8028)">
<rect x="95" y="96" width="59" height="59" rx="16" fill="url(#paint5_linear_23987_8028)" shape-rendering="crispEdges"/>
</g>
<rect x="95" y="96" width="59" height="59" rx="16" fill="url(#paint6_linear_23987_8028)"/>
<rect x="92.5" y="93.5" width="64" height="64" rx="18.5" stroke="#00C584" stroke-opacity="0.1" stroke-width="5"/>
<g filter="url(#filter5_d_23987_8028)">
<rect x="163" y="164" width="59" height="59" rx="16" fill="url(#paint7_linear_23987_8028)"/>
<rect x="163.5" y="164.5" width="58" height="58" rx="15.5" stroke="url(#paint8_linear_23987_8028)"/>
</g>
<g filter="url(#filter6_i_23987_8028)">
<rect x="100" y="101" width="49" height="49" rx="12" fill="#00FFAA" fill-opacity="0.01"/>
</g>
<g filter="url(#filter7_i_23987_8028)">
<rect x="168" y="169" width="49" height="49" rx="12" fill="#25282D"/>
</g>
<path d="M194.751 204.639C194.237 205.338 193.012 204.893 193 204V191H201.136C202.609 191 203.431 192.838 202.515 194.084L194.751 204.639Z" fill="url(#paint9_linear_23987_8028)"/>
<path d="M191.332 183.403C191.851 182.702 192.985 183.104 192.997 183.999V197.075H184.886C183.398 197.075 182.568 195.233 183.493 193.984L191.332 183.403Z" fill="#737983"/>
<path d="M255.124 201.979C250.423 201.894 248.817 201.818 247.83 201.618C247.162 201.486 246.582 201.192 246.156 200.765C245.827 200.442 245.566 199.95 245.363 199.266C245.189 198.697 245.121 198.223 245.025 197.066C244.877 194.454 244.841 192.318 245.025 189.932C245.176 188.615 245.249 187.051 246.253 186.138C246.727 185.711 247.278 185.436 247.898 185.322C248.865 185.142 252.986 185 257.253 185C261.51 185 265.64 185.142 266.609 185.322C267.382 185.465 268.108 185.891 268.534 186.442C269.45 187.854 269.466 189.611 269.559 190.985C269.597 191.64 269.597 195.358 269.559 196.013C269.414 198.185 269.298 198.953 268.969 199.75C268.765 200.253 268.592 200.518 268.291 200.812C267.82 201.265 267.219 201.566 266.569 201.675C262.501 201.975 259.046 202.04 255.124 201.979ZM261.355 193.252C259.091 192.066 256.924 190.967 254.709 189.828V196.639C257.04 195.396 259.498 194.258 261.365 193.243L261.355 193.252Z" fill="url(#paint10_linear_23987_8028)"/>
<circle cx="189.5" cy="222.5" r="2.5" fill="#3B4048"/>
<path d="M128.338 117H131.215L124.93 124.624L132.325 135H126.535L121.998 128.708L116.811 135H113.931L120.653 126.843L113.562 117.001H119.499L123.595 122.751L128.338 117ZM127.326 133.173H128.921L118.628 118.732H116.918L127.326 133.173Z" fill="white"/>
<rect x="124" y="77" width="1" height="20" fill="#35393F"/>
<rect x="124" y="75" width="1" height="10" rx="0.5" fill="#00A36D"/>
<circle cx="124.5" cy="96.5" r="2.5" fill="#00C584"/>
<path d="M358 85V86H127V85H358Z" fill="url(#paint11_linear_23987_8028)" fill-opacity="0.2"/>
<path d="M158 235V236H31V235H158Z" fill="url(#paint12_linear_23987_8028)" fill-opacity="0.2"/>
<path d="M189.5 223.5V229.5V232.591C189.5 234.47 190.162 236.289 191.369 237.73L206.381 255.639C207.901 257.453 210.146 258.5 212.512 258.5H224" stroke="url(#paint13_linear_23987_8028)"/>
</g>
<defs>
<filter id="filter0_f_23987_8028" x="15" y="-20" width="367" height="367" filterUnits="userSpaceOnUse" color-interpolation-filters="sRGB">
<feFlood flood-opacity="0" result="BackgroundImageFix"/>
<feBlend mode="normal" in="SourceGraphic" in2="BackgroundImageFix" result="shape"/>
<feGaussianBlur stdDeviation="40" result="effect1_foregroundBlur_23987_8028"/>
</filter>
<filter id="filter1_dd_23987_8028" x="204" y="246" width="156" height="64" filterUnits="userSpaceOnUse" color-interpolation-filters="sRGB">
<feFlood flood-opacity="0" result="BackgroundImageFix"/>
<feColorMatrix in="SourceAlpha" type="matrix" values="0 0 0 0 0 0 0 0 0 0 0 0 0 0 0 0 0 0 127 0" result="hardAlpha"/>
<feMorphology radius="6" operator="erode" in="SourceAlpha" result="effect1_dropShadow_23987_8028"/>
<feOffset dy="8"/>
<feGaussianBlur stdDeviation="5"/>
<feColorMatrix type="matrix" values="0 0 0 0 0 0 0 0 0 0 0 0 0 0 0 0 0 0 0.1 0"/>
<feBlend mode="normal" in2="BackgroundImageFix" result="effect1_dropShadow_23987_8028"/>
<feColorMatrix in="SourceAlpha" type="matrix" values="0 0 0 0 0 0 0 0 0 0 0 0 0 0 0 0 0 0 127 0" result="hardAlpha"/>
<feMorphology radius="5" operator="erode" in="SourceAlpha" result="effect2_dropShadow_23987_8028"/>
<feOffset dy="20"/>
<feGaussianBlur stdDeviation="12.5"/>
<feColorMatrix type="matrix" values="0 0 0 0 0 0 0 0 0 0 0 0 0 0 0 0 0 0 0.1 0"/>
<feBlend mode="normal" in2="effect1_dropShadow_23987_8028" result="effect2_dropShadow_23987_8028"/>
<feBlend mode="normal" in="SourceGraphic" in2="effect2_dropShadow_23987_8028" result="shape"/>
</filter>
<filter id="filter2_f_23987_8028" x="-6" y="-48" width="390" height="390" filterUnits="userSpaceOnUse" color-interpolation-filters="sRGB">
<feFlood flood-opacity="0" result="BackgroundImageFix"/>
<feBlend mode="normal" in="SourceGraphic" in2="BackgroundImageFix" result="shape"/>
<feGaussianBlur stdDeviation="50" result="effect1_foregroundBlur_23987_8028"/>
</filter>
<filter id="filter3_f_23987_8028" x="42" y="24" width="251" height="251" filterUnits="userSpaceOnUse" color-interpolation-filters="sRGB">
<feFlood flood-opacity="0" result="BackgroundImageFix"/>
<feBlend mode="normal" in="SourceGraphic" in2="BackgroundImageFix" result="shape"/>
<feGaussianBlur stdDeviation="30" result="effect1_foregroundBlur_23987_8028"/>
</filter>
<filter id="filter4_d_23987_8028" x="83" y="96" width="83" height="83" filterUnits="userSpaceOnUse" color-interpolation-filters="sRGB">
<feFlood flood-opacity="0" result="BackgroundImageFix"/>
<feColorMatrix in="SourceAlpha" type="matrix" values="0 0 0 0 0 0 0 0 0 0 0 0 0 0 0 0 0 0 127 0" result="hardAlpha"/>
<feOffset dy="12"/>
<feGaussianBlur stdDeviation="6"/>
<feComposite in2="hardAlpha" operator="out"/>
<feColorMatrix type="matrix" values="0 0 0 0 0.0707285 0 0 0 0 0.0770525 0 0 0 0 0.0865385 0 0 0 0.57 0"/>
<feBlend mode="normal" in2="BackgroundImageFix" result="effect1_dropShadow_23987_8028"/>
<feBlend mode="normal" in="SourceGraphic" in2="effect1_dropShadow_23987_8028" result="shape"/>
</filter>
<filter id="filter5_d_23987_8028" x="151" y="164" width="83" height="83" filterUnits="userSpaceOnUse" color-interpolation-filters="sRGB">
<feFlood flood-opacity="0" result="BackgroundImageFix"/>
<feColorMatrix in="SourceAlpha" type="matrix" values="0 0 0 0 0 0 0 0 0 0 0 0 0 0 0 0 0 0 127 0" result="hardAlpha"/>
<feOffset dy="12"/>
<feGaussianBlur stdDeviation="6"/>
<feComposite in2="hardAlpha" operator="out"/>
<feColorMatrix type="matrix" values="0 0 0 0 0.0707285 0 0 0 0 0.0770525 0 0 0 0 0.0865385 0 0 0 1 0"/>
<feBlend mode="normal" in2="BackgroundImageFix" result="effect1_dropShadow_23987_8028"/>
<feBlend mode="normal" in="SourceGraphic" in2="effect1_dropShadow_23987_8028" result="shape"/>
</filter>
<filter id="filter6_i_23987_8028" x="100" y="101" width="49" height="49" filterUnits="userSpaceOnUse" color-interpolation-filters="sRGB">
<feFlood flood-opacity="0" result="BackgroundImageFix"/>
<feBlend mode="normal" in="SourceGraphic" in2="BackgroundImageFix" result="shape"/>
<feColorMatrix in="SourceAlpha" type="matrix" values="0 0 0 0 0 0 0 0 0 0 0 0 0 0 0 0 0 0 127 0" result="hardAlpha"/>
<feOffset/>
<feGaussianBlur stdDeviation="4"/>
<feComposite in2="hardAlpha" operator="arithmetic" k2="-1" k3="1"/>
<feColorMatrix type="matrix" values="0 0 0 0 0 0 0 0 0 0.774038 0 0 0 0 0.516026 0 0 0 0.8 0"/>
<feBlend mode="normal" in2="shape" result="effect1_innerShadow_23987_8028"/>
</filter>
<filter id="filter7_i_23987_8028" x="168" y="169" width="49" height="49" filterUnits="userSpaceOnUse" color-interpolation-filters="sRGB">
<feFlood flood-opacity="0" result="BackgroundImageFix"/>
<feBlend mode="normal" in="SourceGraphic" in2="BackgroundImageFix" result="shape"/>
<feColorMatrix in="SourceAlpha" type="matrix" values="0 0 0 0 0 0 0 0 0 0 0 0 0 0 0 0 0 0 127 0" result="hardAlpha"/>
<feOffset/>
<feGaussianBlur stdDeviation="3"/>
<feComposite in2="hardAlpha" operator="arithmetic" k2="-1" k3="1"/>
<feColorMatrix type="matrix" values="0 0 0 0 0.21912 0 0 0 0 0.248838 0 0 0 0 0.288462 0 0 0 1 0"/>
<feBlend mode="normal" in2="shape" result="effect1_innerShadow_23987_8028"/>
</filter>
<linearGradient id="paint0_linear_23987_8028" x1="100.725" y1="47.5" x2="219.398" y2="110.801" gradientUnits="userSpaceOnUse">
<stop stop-color="#17191C"/>
<stop offset="1" stop-color="#055D40"/>
</linearGradient>
<linearGradient id="paint1_linear_23987_8028" x1="122.1" y1="65.8038" x2="125.168" y2="79.4442" gradientUnits="userSpaceOnUse">
<stop stop-color="#034C34"/>
<stop offset="1" stop-color="#00C584"/>
</linearGradient>
<linearGradient id="paint2_linear_23987_8028" x1="340" y1="270" x2="223.461" y2="251.374" gradientUnits="userSpaceOnUse">
<stop stop-color="#17191C"/>
<stop offset="1" stop-color="#6B7482" stop-opacity="0.1"/>
</linearGradient>
<linearGradient id="paint3_linear_23987_8028" x1="312" y1="283" x2="221.399" y2="247.536" gradientUnits="userSpaceOnUse">
<stop stop-color="#24272C"/>
<stop offset="1" stop-color="#778192"/>
</linearGradient>
<linearGradient id="paint4_linear_23987_8028" x1="243.789" y1="120.375" x2="265.24" y2="138.109" gradientUnits="userSpaceOnUse">
<stop stop-color="#31353C"/>
<stop offset="1" stop-color="#31353C" stop-opacity="0.32"/>
</linearGradient>
<linearGradient id="paint5_linear_23987_8028" x1="107" y1="82" x2="147" y2="197" gradientUnits="userSpaceOnUse">
<stop stop-color="#00C584"/>
<stop offset="1" stop-color="#005F40" stop-opacity="0"/>
</linearGradient>
<linearGradient id="paint6_linear_23987_8028" x1="107" y1="82" x2="147" y2="163.5" gradientUnits="userSpaceOnUse">
<stop stop-color="#00C584"/>
<stop offset="1" stop-color="#122D24" stop-opacity="0"/>
</linearGradient>
<linearGradient id="paint7_linear_23987_8028" x1="177.235" y1="164" x2="198.607" y2="220.698" gradientUnits="userSpaceOnUse">
<stop stop-color="#25282D"/>
<stop offset="1" stop-color="#1C1E22"/>
</linearGradient>
<linearGradient id="paint8_linear_23987_8028" x1="197.547" y1="234.533" x2="160.555" y2="200.528" gradientUnits="userSpaceOnUse">
<stop stop-color="#434851"/>
<stop offset="1" stop-color="#434851" stop-opacity="0"/>
</linearGradient>
<linearGradient id="paint9_linear_23987_8028" x1="193" y1="193.896" x2="200.388" y2="196.766" gradientUnits="userSpaceOnUse">
<stop stop-color="#737983" stop-opacity="0.46"/>
<stop offset="1" stop-color="#737983"/>
</linearGradient>
<linearGradient id="paint10_linear_23987_8028" x1="242.691" y1="189.563" x2="258.031" y2="208.212" gradientUnits="userSpaceOnUse">
<stop stop-color="#31353C"/>
<stop offset="1" stop-color="#31353C" stop-opacity="0.32"/>
</linearGradient>
<linearGradient id="paint11_linear_23987_8028" x1="148.5" y1="86" x2="358" y2="86" gradientUnits="userSpaceOnUse">
<stop stop-color="#42474F" stop-opacity="0"/>
<stop offset="0.504808" stop-color="#42474F"/>
<stop offset="1" stop-color="#42474F" stop-opacity="0"/>
</linearGradient>
<linearGradient id="paint12_linear_23987_8028" x1="42.8203" y1="236" x2="158" y2="236" gradientUnits="userSpaceOnUse">
<stop stop-color="#42474F" stop-opacity="0"/>
<stop offset="0.504808" stop-color="#42474F"/>
<stop offset="1" stop-color="#42474F" stop-opacity="0"/>
</linearGradient>
<linearGradient id="paint13_linear_23987_8028" x1="206.75" y1="223.5" x2="206.75" y2="258.5" gradientUnits="userSpaceOnUse">
<stop stop-color="#42474F" stop-opacity="0"/>
<stop offset="1" stop-color="#727B8B"/>
</linearGradient>
<clipPath id="clip0_23987_8028">
<rect width="395" height="320" fill="white"/>
</clipPath>
</defs>
</svg>
