<?xml version="1.0" encoding="utf-8"?>
<!-- Generator: Adobe Illustrator 27.3.1, SVG Export Plug-In . SVG Version: 6.00 Build 0)  -->
<svg version="1.1" xmlns="http://www.w3.org/2000/svg" xmlns:xlink="http://www.w3.org/1999/xlink" x="0px" y="0px"
	 viewBox="0 0 2062 773" style="enable-background:new 0 0 2062 773;" xml:space="preserve">
<style type="text/css">
	.st0{stroke:#000000;stroke-miterlimit:10;}
	.st1{opacity:0.3;}
	
		.st2{opacity:0.38;fill:url(#SVGID_1_);stroke:url(#SVGID_00000183957517367940211630000004098868252386589095_);stroke-width:3;stroke-miterlimit:10;}
	
		.st3{opacity:0.38;fill:url(#SVGID_00000158007274732716761830000007412266887880747406_);stroke:url(#SVGID_00000094588406633831362610000017656009032708386451_);stroke-width:3;stroke-miterlimit:10;}
	
		.st4{opacity:0.38;fill:url(#SVGID_00000137848886039416296300000006424803586493089428_);stroke:url(#SVGID_00000047039293921068344810000007937448452848250243_);stroke-width:3;stroke-miterlimit:10;}
	
		.st5{opacity:0.38;fill:url(#SVGID_00000085223287121926213950000015174189312757949351_);stroke:url(#SVGID_00000165947234300070072040000002957067878073659044_);stroke-width:3;stroke-miterlimit:10;}
	
		.st6{opacity:0.38;fill:url(#SVGID_00000059273753229828921040000013611615786327264904_);stroke:url(#SVGID_00000118366817318559271490000016310727149299292342_);stroke-width:3;stroke-miterlimit:10;}
	
		.st7{opacity:0.38;fill:url(#SVGID_00000152946953872646187620000017342016005087952552_);stroke:url(#SVGID_00000138532792759652595810000006062564516852543881_);stroke-width:3;stroke-miterlimit:10;}
	
		.st8{opacity:0.38;fill:url(#SVGID_00000157287489105009265200000004889996978545853870_);stroke:url(#SVGID_00000073708797994372431180000002794396294076224390_);stroke-width:3;stroke-miterlimit:10;}
	
		.st9{opacity:0.38;fill:url(#SVGID_00000095313421247934193290000003535555069309830023_);stroke:url(#SVGID_00000037669586163016810380000013654053083343013047_);stroke-width:3;stroke-miterlimit:10;}
	.st10{opacity:0.19;}
	.st11{opacity:0.06;}
	.st12{fill:#0A0808;stroke:#50422F;stroke-linecap:round;stroke-miterlimit:10;}
	.st13{opacity:0.28;fill:#B7B7B7;}
	.st14{fill:none;stroke:#FFFFFF;stroke-width:4;stroke-miterlimit:10;}
	.st15{fill:none;stroke:#FFFFFF;stroke-width:2;stroke-miterlimit:10;}
	.st16{fill:#231F20;stroke:#FFFFFF;stroke-width:4;stroke-miterlimit:10;}
	.st17{fill:#FFFFFF;}
	.st18{fill:#BF7E43;}
	.st19{fill:#FFFFFF;stroke:#0077B5;stroke-width:2;stroke-miterlimit:10;}
	.st20{fill:none;stroke:#0077B5;stroke-width:2;stroke-miterlimit:10;}
	.st21{fill:none;stroke:#ED2726;stroke-width:3;stroke-miterlimit:10;}
	.st22{fill:#FFFFFF;stroke:#ED2726;stroke-width:3;stroke-miterlimit:10;}
	.st23{fill:none;stroke:#DE2F26;stroke-miterlimit:10;}
	.st24{fill:#DE2F26;}
	.st25{fill:#FFFFFF;stroke:#DE2F26;stroke-miterlimit:10;}
	.st26{fill:none;stroke:#FFFFFF;stroke-width:5;stroke-miterlimit:10;}
	.st27{fill:none;stroke:#3B599A;stroke-width:3;stroke-miterlimit:10;}
	.st28{fill:#FFFFFF;stroke:#3B599A;stroke-width:3;stroke-miterlimit:10;}
	.st29{fill:#F5B176;}
	.st30{fill:#17191C;}
	.st31{opacity:0.62;}
	.st32{fill:none;stroke:#F4B176;stroke-width:0.5;stroke-miterlimit:10;}
	.st33{opacity:0.54;}
	.st34{fill:none;stroke:#FFFFFF;stroke-miterlimit:10;}
	.st35{fill:#F4B176;stroke:#FFFFFF;stroke-width:2;stroke-miterlimit:10;}
	.st36{opacity:0.38;fill:none;stroke:#FFFFFF;stroke-width:0.75;stroke-miterlimit:10;}
	.st37{opacity:0.55;fill:none;stroke:#FFFFFF;stroke-width:0.5;stroke-miterlimit:10;}
	.st38{opacity:0.38;fill:none;stroke:#F2F2F2;stroke-width:3;stroke-miterlimit:10;}
	.st39{opacity:0.53;fill:#FFFFFF;}
	.st40{font-family:'TrebuchetMS';}
	.st41{font-size:23px;}
</style>
<g id="Layer_1">
</g>
<g id="Layer_2">
	<g>
		<path class="st38" d="M481.45,280.96v-56.82H360.33c-6.76-0.52-14.41-0.22-22.52,1.75c-38.57,9.38-55.5,48-57.46,52.67
			c-2.82,6.75-6.66,18.19-7.18,33.52v46.83c0.36,2.32,1.04,6.11,2.39,10.63c7.13,23.84,25.97,45.2,50.27,55.06
			c3.72,1.51,9.41,3.5,16.76,4.79l138.85,2.53v-59.29l-123.29-1.9c-3.66-0.74-9.46-2.5-14.36-7.18c-6.3-6.02-9.58-13.3-9.58-26.33
			c0-11.97,0-19.15,0-28.73c0-3.59,4.66-12.88,14.36-19.15c4.61-2.98,9.06-4.22,11.97-4.79l120.9-0.85V280.96z"/>
		<polygon class="st38" points="583.2,223.91 491.02,429.38 555.75,429.38 620.3,283.35 622.69,283.35 651.42,345.59 615.51,345.59 
			593.96,395.87 675.36,395.87 688.59,429.38 757.03,429.38 661.88,223.91 		"/>
		<path class="st38" d="M967.42,278.56v-56.07H817.41c-6.79-0.19-15.21-0.29-25.95,4.6c-26.55,12.1-30.7,45.37-31.12,50.27
			c-0.21,2.43-2.82,39.35,23.94,59.85c7.09,5.43,14.21,8.15,19.15,9.58h104.73c1.76,0.56,4.96,1.84,7.78,4.79
			c1.54,1.61,5.89,6.14,4.79,11.97c-0.85,4.49-4.63,8.17-9.58,9.58H766.91v56.26h165.41c3.86-1.11,9.05-2.92,14.75-5.98
			c5.24-2.82,32.42-17.43,38.3-47.88c4.94-25.57-6.69-54.23-28.73-67.03c-9.02-5.24-17.93-6.75-23.94-7.18H827.38l-4.79-2.39
			c-3.77-2.76-5.64-7.43-4.79-11.97c0.91-4.8,4.71-8.61,9.58-9.58L967.42,278.56z"/>
		<path class="st38" d="M996.39,276.54c-0.21,2.43-2.82,39.35,23.94,59.85c7.09,5.43,14.21,8.15,19.15,9.58h104.73
			c1.76,0.56,4.96,1.84,7.78,4.79c1.54,1.61,5.89,6.14,4.79,11.97c-0.85,4.49-4.64,8.17-9.58,9.58h-144.26v56.26h165.41
			c3.86-1.11,9.05-2.92,14.75-5.98c5.24-2.82,32.42-17.43,38.3-47.88c4.94-25.57-6.69-54.23-28.73-67.03
			c-9.02-5.24-17.93-6.75-23.94-7.18h-105.34l-4.79-2.39c-3.77-2.76-5.64-7.43-4.79-11.97c0.91-4.8,4.71-8.61,9.58-9.58l140.05,1.2
			v-56.07h-150.01c-6.79-0.19-15.21-0.29-25.95,4.6C1000.96,238.37,996.81,271.64,996.39,276.54"/>
		<rect x="1246.32" y="301.3" class="st38" width="62.24" height="126.88"/>
		<path class="st38" d="M1246.32,279.16v-55.99h182.33c7.93,2.17,14.06,5.41,18.76,8.71c27.25,19.13,38.48,59.77,28.73,93.37
			c-1.18,4.07-11.63,38.15-43.09,52.67c-5.67,2.62-10.75,4.01-14.36,4.79h-105.86l31.65-57.46h57.46c1.68-0.2,4.41-0.72,7.18-2.39
			c9.77-5.89,14.35-22.56,7.18-33.52c-4.27-6.53-11.27-8.8-14.36-9.58L1246.32,279.16z"/>
		<rect x="1492.9" y="301.3" class="st38" width="62.24" height="126.88"/>
		<path class="st38" d="M1679.56,376.19c31.46-14.51,41.91-48.6,43.09-52.67c9.76-33.6-1.48-74.24-28.73-93.37
			c-4.7-3.3-10.83-6.54-18.76-8.71h-182.33v55.99l155.61,0.6c3.1,0.78,10.09,3.05,14.36,9.58c7.17,10.95,2.58,27.63-7.18,33.52
			c-2.77,1.67-5.51,2.2-7.18,2.39h-57.46l-31.65,57.46h46.81l45.38,47.21h76.85L1679.56,376.19z"/>
	</g>
	<text transform="matrix(1 0 0 1 1718.427 278.4749)" class="st39 st40 st41">Super ©</text>
</g>
</svg>
